<?xml version="1.0" encoding="utf-8"?>
<!-- Generator: Adobe Illustrator 23.0.0, SVG Export Plug-In . SVG Version: 6.00 Build 0)  -->
<svg version="1.1" id="Layer_1" xmlns="http://www.w3.org/2000/svg" xmlns:xlink="http://www.w3.org/1999/xlink" x="0px" y="0px"
	 viewBox="0 0 469 117.5" style="enable-background:new 0 0 469 117.5;" xml:space="preserve">
<style type="text/css">
	.st0{fill:#164397;stroke:#164397;stroke-width:0.5;stroke-miterlimit:10;}
</style>
<g>
	<g>
		<path class="st0" d="M95.6,51.2c-1.8,2.5-3.5,5.1-5.3,7.5c-1,1.3-2.1,2.5-3.3,3.5c-1.8,1.5-3.7,2.8-5.6,4c-2.9,1.9-6.2,3-9.5,4
			c-3.3,1.1-6.6,1.3-10,1.3c-8.4,0.1-16.8,0.1-25.2,0.1c-0.4,0-0.9,0-1.4,0c0-4,0-7.8,0-11.9c0.4,0,0.8,0,1.3,0c8.4,0,16.9,0,25.3,0
			c1.9,0,3.8-0.1,5.7-0.5c4.2-1,8.1-2.8,11.2-5.8c5.3-5,8.1-11.2,7.8-18.6c-0.2-3.7-1.2-7.2-3.1-10.4c-2.2-3.7-5.1-6.6-8.9-8.8
			c-4.5-2.7-9.4-3.2-14.5-3.2c-0.5,0-1.1,0.1-1.6,0.1c-14.3,0-28.5,0-42.8,0c-0.5,0-1,0-1.6,0c0,34.7,0,69.2,0,103.9
			c-4.7,0-9.4,0-14.1,0c0-38.5,0-77,0-115.5c0.5,0,1,0,1.5,0c9,0,18,0,27,0c11.5-0.1,22.9-0.4,34.4-0.2c4.5,0.1,9.1,0.9,13.3,2.7
			c3.4,1.5,6.7,3.3,9.5,5.7c4,3.4,7.2,7.4,9.6,12.5c0-7.1,0-13.8,0-20.6c30.3,0,60.4,0,90.7,0c-1.4,1.1-2.7,2.2-4,3.2
			c-3,2.4-5.7,5.1-8.1,8.2c-0.1,0.2-0.5,0.3-0.7,0.4c-0.3,0.1-0.7,0-1,0c-20.6,0-41.2,0-61.7,0c-0.5,0-1,0-1.5,0c0,30.7,0,61.3,0,92
			c0.5,0,0.9,0,1.3,0c7.3,0,14.6,0,21.9,0c13.2,0,26.4,0.1,39.5,0.1c0.7,0,1.1,0.2,1.5,0.9c0.8,1.3,1.8,2.5,2.9,3.5
			c2.5,2.5,5.1,4.8,7.7,7.2c0,0,0.1,0.1,0.1,0.3c-29.5,0-59,0-88.5,0C95.6,94.8,95.6,72.9,95.6,51.2z"/>
		<path class="st0" d="M381.1,104.6c26.2,0,52.1,0,78.2,0c-0.8,1.4-1.5,2.7-2.2,3.9c-1.5,2.5-3,5-4.5,7.5c-0.2,0.3-0.8,0.6-1.2,0.6
			c-31.3,0-62.6,0-93.9,0c-0.1,0-0.2,0-0.4-0.1c0.5-1,1-2.1,1.5-3.1c2.3-4.4,4.6-8.7,6.8-13.1c1.7-3.4,3.4-6.8,5.2-10.1
			c0.6-1.1,1.5-2,2.4-2.9c1.1-1.1,2.4-2,3.6-3c2-1.6,4-3.1,6-4.7c3.8-3,7.5-6.1,11.2-9.1c2-1.6,4-3.3,6-4.9c4-3.2,8-6.4,11.9-9.6
			c2.2-1.8,4.4-3.6,6.6-5.4c3.2-2.6,6.4-5.2,9.5-7.9c2.2-1.9,3.1-5.7,1.6-8.8c-1.7-3.6-4.5-5.5-8.6-5.5c-15.8,0-31.6,0-47.3,0
			c-0.9,0-1.5-0.1-2-1c-2.2-3.8-4.4-7.5-6.7-11.4c0.4,0,0.8-0.1,1.1-0.1c18.6,0,37.3-0.1,55.9,0.1c2.7,0,5.5,0.5,7.9,1.6
			c10,4.3,15.9,14.8,12.2,26c-1.2,3.5-3,6.4-5.9,8.8c-3.5,2.9-6.9,5.9-10.4,8.8c-2.2,1.9-4.3,3.7-6.5,5.6c-3.6,3-7.1,6-10.7,9
			c-2.1,1.8-4.2,3.6-6.3,5.4c-3.6,3-7.1,6-10.7,9.1c-1.8,1.5-3.6,3-5.3,4.7c-0.7,0.7-1.1,1.7-1.6,2.6
			C383.4,99.9,382.3,102.2,381.1,104.6z"/>
		<path class="st0" d="M352.9,117.1c-0.6,0-1.1,0-1.5,0c-19,0-38.1,0.1-57.1-0.1c-4.7,0-9.4-1.2-14-2.8c-1.5-0.5-2.9-1.2-4.4-1.9
			c-3.7-1.7-7-3.9-10-6.6c-3.9-3.3-7.1-7.3-9.6-11.7c-3.4-6-5.6-12.5-6.7-19.2c-1.9-11.1-2.1-22.2,0.1-33.2c1.2-6.1,3.3-12,6.6-17.3
			c2-3.2,4.1-6.2,6.9-8.7c2.3-2,4.6-3.9,7-5.7c3.7-2.8,7.9-4.5,12.2-6.1c6.2-2.2,12.6-3.1,19.2-3.1c11.6,0,23.1,0,34.7,0
			c0.9,0,1.3,0.2,1.7,1c1.6,3.4,3.4,6.7,5,10c0.2,0.3,0.2,0.7,0.4,1.1c-0.6,0-1,0-1.4,0c-13.6,0-27.3,0-40.9,0
			c-4.1,0-8.1,0.7-11.9,2c-2.3,0.7-4.6,1.6-6.6,2.9c-2.8,1.7-5.5,3.5-7.8,5.6c-6,5.6-9.5,12.7-11.2,20.7c-2,9.9-1.8,19.8,0.1,29.6
			c0.9,4.8,2.5,9.4,5,13.7c1.9,3.3,4.1,6.3,7,8.8c2.7,2.4,5.7,4.3,9,5.8c4.6,2.1,9.4,2.8,14.4,2.8c15.4,0,30.7,0,46.1,0
			c1.1,0,1.7,0.1,2.2,1.3c1.6,3.4,3.5,6.8,5.3,10.2C352.8,116.5,352.8,116.7,352.9,117.1z"/>
		<path class="st0" d="M419.5,88.9c16.3,0,32.6,0,49,0c-0.5,1-0.9,1.8-1.4,2.5c-1.7,2.9-3.4,5.8-5.1,8.7c-0.4,0.7-0.9,1-1.7,1
			c-23.9,0-47.8,0-71.6,0c-0.4,0-0.7,0-1.2,0c1.2-2.3,2-4.4,4-6c4-3.1,7.7-6.4,11.6-9.7c2.2-1.9,4.5-3.8,6.7-5.7
			c3.5-3,7-5.9,10.5-8.9c2.1-1.8,4.2-3.6,6.3-5.4c3.6-3.1,7.3-6.1,10.9-9.2c1.4-1.2,2.8-2.4,3.9-3.9c5.1-6.5,6.4-13.9,4.1-21.8
			c-1.4-4.8-4.2-8.7-8.1-12c-4.6-3.8-9.8-5.6-15.7-5.8c-1.7,0-3.5,0-5.2,0c-16.7,0-33.4,0-50.1,0c-0.5,0-0.9,0-1.7,0
			c2.1-4.2,4.2-8.3,6.2-12.5c0.4,0,0.8,0,1.2,0c16.2,0,32.4-0.1,48.6,0c5.1,0,10.1,0.9,14.8,2.8c3.6,1.4,7,3.4,10,5.9
			c3.7,3.1,6.9,6.8,9.2,11.1c3.9,7.3,5.2,15.1,3.9,23.3c-1.1,6.7-3.8,12.8-8.4,17.8c-1.7,1.9-3.6,3.7-5.5,5.4
			c-3.6,3.2-7.3,6.2-10.9,9.4c-2,1.7-4,3.5-6,5.2c-2.7,2.4-5.4,4.8-8.2,7.2C419.6,88.5,419.6,88.6,419.5,88.9z"/>
		<path class="st0" d="M112.8,56.2c0-13.4,0-26.7,0-40c19.4,0,38.7,0,58.2,0c-1,1.8-2,3.4-2.8,5.1c-1.1,2.1-2,4.2-3,6.4
			c-0.3,0.8-0.7,1-1.6,1c-11.5,0-23,0-34.5,0c-0.5,0-1,0-1.6,0c0,5.1,0,10.1,0,15.3c0.4,0,0.9,0,1.4,0c11.7,0,23.5-0.1,35.2,0
			c5.6,0,9.3-3.2,11-8.4c1.2-3.5,2.6-6.9,4.4-10.1c2.7-5,6.4-9.3,10.9-12.8c2.6-2.1,5.3-4.1,8.4-5.5c2.6-1.1,5.2-2.3,7.8-3.3
			c5.7-2.2,11.7-3,17.8-3c12.8,0,25.6,0,38.4,0c0.4,0,0.9,0,1.7,0c-0.5,0.3-0.7,0.4-0.9,0.6c-3.1,2.5-6.2,5-9.2,7.6
			c-1.2,1-2,2.4-3.1,3.5c-0.3,0.3-0.9,0.5-1.4,0.5c-8.3,0-16.5,0-24.8,0c-4.1,0-8.1,0.7-11.9,1.9c-2.3,0.7-4.6,1.6-6.7,2.8
			c-4.1,2.2-7.8,5-10.8,8.6c-4.3,5.1-7,11-8.3,17.5c-1.2,6-4.3,10.3-10.5,11.7c-2.4,0.6-5,0.8-7.5,0.8c-18.7,0.1-37.4,0-56.1,0
			C113.2,56.3,113,56.3,112.8,56.2z"/>
		<path class="st0" d="M127.5,71.6c0,5.8,0,11.6,0,17.6c0.5,0,1,0,1.5,0c11.6,0,23.1,0,34.7,0c0.6,0,1.1-0.1,1.4,0.7
			c1.6,3.8,3.3,7.5,5,11.2c-18.9,0-38.1,0-57.3,0c0-13.7,0-27.5,0-41.4c0.5,0,0.9,0,1.3,0c16.5,0,33,0,49.6,0
			c4.2,0,8.3,0.1,12.5,0.5c5.1,0.5,10.2,5.7,10.9,10.9c0.9,6.1,2.8,11.9,5.9,17.3c1.7,2.8,3.7,5.3,6.1,7.5c2.9,2.6,6.1,4.6,9.6,6.2
			c4,1.8,8.3,2.6,12.6,2.6c9.3,0.1,18.6,0,27.9,0c0.8,0,1.2,0.2,1.8,0.9c2.2,2.6,4.6,5.1,7.1,7.5c1.2,1.2,2.7,2.2,4.1,3.3
			c0.2,0.1,0.3,0.3,0.6,0.7c-0.6,0-1,0-1.4,0c-14.5,0-29,0.2-43.5-0.1c-4.6-0.1-9.2-1.8-13.8-2.8c-1.2-0.3-2.4-1-3.6-1.5
			c-4-1.7-7.6-4-10.8-7c-2.8-2.6-5.5-5.6-7.7-8.7c-3.6-5-5.9-10.6-7.3-16.6c-0.8-3.1-2.3-5.5-4.8-7.3c-1.7-1.2-3.7-1.6-5.8-1.6
			c-12,0-24,0-36.1,0C127.9,71.5,127.8,71.6,127.5,71.6z"/>
		<path class="st0" d="M18.1,15.6c0.5,0,0.9,0,1.3,0c14.5,0,28.9,0,43.4,0c3.2,0,6.4,0.6,9.2,2c8.3,4.3,13.3,13.1,10.8,23.1
			c-0.9,3.5-2.6,6.4-5.2,8.9c-3.3,3.4-7.3,5.4-12,5.9C63,55.8,60.4,56,57.8,56c-7,0.1-14,0-20.9,0c-0.4,0-0.9,0-1.4,0
			c0-4.1,0-8.1,0-12.2c0.5,0,0.9,0,1.4,0c8.3,0,16.7,0,25,0c1.2,0,2.5-0.2,3.6-0.5c5.3-1.7,7.4-8.7,3.3-13.1
			c-1.7-1.8-3.7-2.7-6.1-2.7c-10.1-0.1-20.2,0-30.2,0c-0.1,0-0.2,0-0.5,0.1c0,29.5,0,59,0,88.6c-4.7,0-9.3,0-13.9,0
			C18.1,82.7,18.1,49.3,18.1,15.6z"/>
		<path class="st0" d="M343.8,16.1c-1,1.8-1.8,3.4-2.8,5c-1.2,2.1-2.5,4.3-3.6,6.4c-0.4,0.8-0.9,1-1.8,1c-9.1,0-18.3-0.1-27.4,0
			c-2.5,0-5,0.2-7.4,0.7c-4.4,1-8.5,2.8-11.9,5.7c-4.8,4.1-7.5,9.4-8.4,15.6c-1.2,7.8-0.8,15.6,2,23c1,2.8,2.5,5.3,4.5,7.6
			c2.7,3,5.8,5.1,9.7,6.5c2.4,0.9,4.9,1.4,7.4,1.4c11.2,0,22.3,0,33.5,0c0.8,0,1.3,0.1,1.7,0.9c1.8,3.7,3.8,7.4,5.7,11.1
			c0,0.1,0,0.2,0.1,0.4c-2.7,0-5.3,0-7.9,0c-11.2-0.1-22.3-0.2-33.5-0.2c-4.1,0-8.3-0.1-12.3-1.3c-4.2-1.3-8.3-3.1-11.7-6
			c-5.8-4.9-9.4-11.1-11.4-18.3c-2.6-9.9-2.9-20-1.1-30c1.1-6,3.4-11.5,7.1-16.4c0.8-1.1,1.7-2.2,2.8-3.1c1.9-1.6,3.9-3.3,6.1-4.6
			c2.2-1.3,4.6-2.3,7-3.3c4.1-1.8,8.6-2.3,13-2.3c13.2-0.1,26.4,0,39.7,0C343.1,16.1,343.4,16.1,343.8,16.1z"/>
		<path class="st0" d="M248.4,16.1c-1.1,1.8-2.1,3.5-3,5.3c-1,2-1.9,4-2.8,6c-0.4,0.9-0.8,1.2-1.8,1.2c-3.9-0.1-7.8,0-11.6,0.1
			c-4.1,0.1-8,1.4-11.6,3.3c-4,2.1-7.4,5-9.7,9c-2.6,4.4-3.7,9.3-3.9,14.4c-0.2,5.1,0.1,10.1,1.4,15.1c1.1,4,2.8,7.7,5.6,10.9
			c2.6,3,5.7,5,9.4,6.4c2.8,1,5.6,1.4,8.5,1.4c4.1,0,8.2,0,12.3,0c0.4,0,1.1,0.3,1.2,0.6c1.8,3.8,3.5,7.6,5.2,11.4
			c-0.2,0-0.5,0.1-0.9,0.1c-8,0-16,0.1-23.9-0.1c-2.8-0.1-5.7-0.7-8.4-1.4c-2.2-0.6-4.4-1.5-6.3-2.6c-5.3-3-9.4-7.2-12.4-12.6
			c-4.1-7.5-5.5-15.6-5.8-24c-0.2-6.6,0.3-13,2.2-19.3c1.1-3.6,2.7-7.1,4.8-10.2c2.9-4.1,6.4-7.6,10.9-9.9c2-1,4-1.9,6-2.7
			c5-2.1,10.2-2.4,15.5-2.4c5.9,0,11.9,0,17.8,0C247.6,16.1,248,16.1,248.4,16.1z"/>
		<path class="st0" d="M355,95.2c-1.3-6.5-2.5-12.9-3.8-19.4c-0.5-2.8-1.1-5.6-1.7-8.4c-0.1-0.4-0.6-0.9-1-1c-2.2-0.5-4.3-1-6.5-1.5
			c-4.3-1-8.6-2-12.9-3c-2-0.5-3.9-1.1-6-1.6c1.2-0.3,2.2-0.5,3.3-0.7c5.1-1.2,10.2-2.4,15.3-3.6c2.3-0.5,4.5-1.2,6.8-1.6
			c0.8-0.2,1-0.6,1.2-1.3c1.8-9.1,3.5-18.3,5.5-27.4c0.2,1,0.5,2.1,0.7,3.1c1.6,8.2,3.2,16.3,4.7,24.5c0.1,0.7,0.4,1,1.1,1.1
			c1.7,0.3,3.5,0.7,5.2,1.1c4.2,1,8.5,2,12.7,3c2.5,0.6,4.9,1.3,7.4,1.9c-0.6,0.1-1.1,0.3-1.7,0.4c-5.1,1.2-10.2,2.4-15.3,3.6
			c-2.8,0.7-5.7,1.3-8.5,2.1c-0.4,0.1-0.8,0.6-0.9,0.9c-1.8,8.9-3.5,17.9-5.3,26.8c-0.1,0.3-0.2,0.7-0.2,1
			C355.1,95.2,355.1,95.2,355,95.2z M364.6,60.2c-0.5-0.2-0.7-0.3-0.8-0.4c-2-0.6-3.9-1.1-5.9-1.7c-0.4-0.1-0.9-0.6-1-1
			c-0.4-1.4-0.6-2.8-1-4.2c-0.2-0.9-0.5-1.8-0.7-2.7c-0.8,2.3-1.3,4.6-1.9,6.9c-0.1,0.4-0.5,0.9-0.8,1c-1.9,0.6-3.8,1.1-5.8,1.7
			c-0.3,0.1-0.5,0.2-1.1,0.4c1.7,0.4,3,0.8,4.4,1.1c2.2,0.4,3.7,1.3,3.8,3.9c0.1,1.6,0.7,3.1,1,4.7c0.1,0,0.2,0,0.4,0
			c0.1-0.4,0.2-0.8,0.3-1.2c0.4-1.8,0.8-3.7,1.3-5.5c0.1-0.3,0.3-0.7,0.6-0.8c1-0.4,2-0.7,3-1C361.7,60.9,363,60.6,364.6,60.2z"/>
	</g>
</g>
</svg>
